<?xml version="1.0" encoding="UTF-8" standalone="no"?>
<!-- Created with Inkscape (http://www.inkscape.org/) -->

<svg
   width="76.400589mm"
   height="47.234318mm"
   viewBox="0 0 76.400589 47.234318"
   version="1.1"
   id="svg248"
   inkscape:version="1.2.1 (9c6d41e410, 2022-07-14)"
   sodipodi:docname="JobSeeker_black_font.svg"
   inkscape:export-filename="JobSeeker.png"
   inkscape:export-xdpi="96"
   inkscape:export-ydpi="96"
   xmlns:inkscape="http://www.inkscape.org/namespaces/inkscape"
   xmlns:sodipodi="http://sodipodi.sourceforge.net/DTD/sodipodi-0.dtd"
   xmlns:xlink="http://www.w3.org/1999/xlink"
   xmlns="http://www.w3.org/2000/svg"
   xmlns:svg="http://www.w3.org/2000/svg">
  <sodipodi:namedview
     id="namedview250"
     pagecolor="#ffffff"
     bordercolor="#666666"
     borderopacity="1.0"
     inkscape:showpageshadow="2"
     inkscape:pageopacity="0.0"
     inkscape:pagecheckerboard="0"
     inkscape:deskcolor="#d1d1d1"
     inkscape:document-units="mm"
     showgrid="false"
     inkscape:zoom="0.69664703"
     inkscape:cx="48.08748"
     inkscape:cy="529.68"
     inkscape:window-width="1920"
     inkscape:window-height="1011"
     inkscape:window-x="0"
     inkscape:window-y="0"
     inkscape:window-maximized="1"
     inkscape:current-layer="layer1" />
  <defs
     id="defs245">
    <linearGradient
       inkscape:collect="always"
       xlink:href="#linearGradient1494"
       id="linearGradient1496"
       x1="290.2739"
       y1="462.655"
       x2="546.27393"
       y2="462.655"
       gradientUnits="userSpaceOnUse" />
    <linearGradient
       id="linearGradient1494"
       inkscape:swatch="solid">
      <stop
         style="stop-color:#39cbfb;stop-opacity:1;"
         offset="0"
         id="stop1492" />
    </linearGradient>
    <clipPath
       clipPathUnits="userSpaceOnUse"
       id="clipPath535">
      <path
         id="path537"
         style="fill:#ff0000;fill-opacity:1;fill-rule:nonzero;stroke:none"
         d="m 290.27391,334.65219 v 256.00586 h 256 V 334.65219 Z m 47.39648,121.02929 h 0.002 0.002 0.002 c 0.24632,-0.003 0.48835,0.0472 0.73242,0.12891 0.67047,-0.0608 1.46608,0.33584 2.07813,0.64844 0.35523,0.18143 0.3443,0.72592 0.43945,1.11328 0.0475,0.19334 0.0852,0.38799 0.11523,0.58398 0.1557,0.21443 0.30834,0.43018 0.43946,0.66016 0.58478,1.02577 1.0908,2.09546 1.60937,3.15625 0.0564,0.11535 0.12856,0.27499 0.1875,0.39648 0.11534,-0.0269 0.2289,-0.0563 0.34766,-0.0762 0.36893,-0.0613 0.91603,-0.3027 1.12305,0.01 0.25641,0.38589 0.39778,0.60822 0.58398,0.89062 0.0714,-0.0315 0.1269,-0.0609 0.21094,-0.0976 0.17714,-0.0544 0.35857,-0.0968 0.53125,-0.16407 0.0341,-0.0133 -0.14229,0.0196 -0.11133,0 0.69669,-0.44031 1.88712,-0.62002 2.53516,0.0742 0.33456,0.35847 0.40481,0.87978 0.5332,1.36524 0.39175,0.21155 0.78079,0.42689 1.11523,0.69531 0.0162,0.008 0.0326,0.0155 0.0488,0.0234 0.1732,-0.23758 0.35798,-0.46605 0.53711,-0.69922 0.42042,-0.7242 0.86751,-1.27201 1.57813,-1.29492 0.42636,-0.0138 0.94718,0.16192 1.61523,0.59961 0.43775,0.2868 0.32011,1.02333 0.27734,1.54492 -0.0277,0.33839 -0.34739,1.0306 -0.65625,1.66406 0.0727,0.0208 0.14527,0.0421 0.2168,0.0645 0.73271,-0.32342 1.02331,-0.22532 1.12695,0.10938 0.59014,-0.46549 1.37046,-0.13358 2.60157,1.51953 0.29753,0.39952 0.0326,0.99601 0.0351,1.49414 0.002,0.33545 -0.005,0.67041 -0.008,1.00586 0.31933,-0.0378 0.57372,0.003 0.49023,0.18164 -0.11574,0.24818 -0.29218,0.45092 -0.49609,0.63086 -10e-4,0.12832 -0.003,0.25645 -0.004,0.38477 -1.4e-4,0.006 1.5e-4,0.013 0,0.0195 0.30167,0.11579 0.62108,0.21101 0.92579,0.32617 0.0436,-0.0348 0.0874,-0.0627 0.1289,-0.0898 0.15897,-0.52295 0.33185,-1.04098 0.5,-1.41211 0.15454,-0.3411 0.1804,-0.98827 0.55469,-0.97657 0.0945,0.003 0.18692,0.0182 0.2793,0.0312 0.11202,-0.13329 0.23918,-0.24584 0.40039,-0.31054 0.4307,-0.17287 1.65981,-0.16481 1.37695,0.20312 -0.16527,0.21498 -0.30621,0.3835 -0.45313,0.56445 0.2853,0.13885 0.56891,0.28355 0.85547,0.41602 0.0307,-0.0129 0.0635,-0.0283 0.0937,-0.041 0.0809,-0.0341 0.10552,0.0356 0.11328,0.13086 0.0703,0.0299 0.14004,0.0631 0.21094,0.0898 -0.0931,0.14683 -0.16981,0.3101 -0.24414,0.47656 -3e-5,0.004 -0.002,0.0103 -0.002,0.0137 0.002,0.33436 -0.0226,0.66825 -0.0645,1 -0.0556,0.44154 -0.1512,0.87782 -0.22657,1.31641 -0.005,0.022 -0.009,0.0444 -0.0137,0.0664 0.069,0.005 0.1383,0.0112 0.20703,0.0176 0.0401,-0.0944 0.081,-0.1888 0.1211,-0.2832 0.0125,-0.0325 0.0476,-0.13074 0.0371,-0.0977 -0.0188,0.0595 -0.0771,0.23222 -0.12696,0.38282 0.036,0.003 0.0715,0.008 0.10742,0.0117 0.18194,-0.52456 0.16541,-1.22072 0.64649,-1.43554 0.67835,-0.3029 1.47045,0.22143 2.20508,0.33203 0.15632,0.43526 0.41858,0.84689 0.46875,1.30664 0.017,0.15617 -0.0358,0.31216 -0.0449,0.46875 1.65437,-0.59469 1.51493,0.0265 1.36329,0.9707 -0.01,0.044 -0.0146,0.0887 -0.0234,0.13282 0.01,0.007 0.0157,0.0109 0.0254,0.0176 0.33092,0.22781 -0.002,0.80411 -0.0273,1.20508 -0.018,0.28721 -0.0401,0.56443 -0.0625,0.83985 1.30509,-0.84119 2.0739,-1.10689 2.46679,-0.85352 0.008,-0.007 0.0173,-0.014 0.0254,-0.0215 0.48354,-0.0386 0.96645,-0.16439 1.44922,-0.11719 0.27907,0.0273 0.52661,0.20095 0.77344,0.33398 0.15478,0.0834 0.30577,0.18551 0.45117,0.29688 0.53849,-0.58246 1.30496,-0.58667 1.85547,-0.082 0.52235,0.15125 1.07308,0.25698 1.58203,0.42968 0.38379,-0.0185 0.76644,-0.0394 1.12891,-0.10742 -0.0231,0.1504 -0.0623,0.4096 -0.10157,0.65625 0.0279,0.0237 0.0571,0.0451 0.084,0.0703 0.3914,0.36725 0.0236,1.05045 -0.0312,1.60547 0.42561,-0.20541 0.85052,-0.38472 1.25976,-0.28515 0.0125,-0.044 0.0235,-0.0866 0.041,-0.13672 0.0536,-0.50285 0.0814,-0.85091 0.33398,-0.86133 0.24798,-0.0102 0.71996,0.31263 1.63672,1.125 0.39565,0.0614 0.78822,0.14023 1.16993,0.23828 0.18319,0.0471 -0.0842,0.3685 -0.12696,0.55274 -0.0158,0.0453 -0.0254,0.0954 -0.0351,0.14453 0.004,0.006 0.008,0.0115 0.0117,0.0176 0.65856,-0.12167 1.3478,-0.12538 2.01172,-0.22656 0.12928,0.51607 0.39088,1.01813 0.43555,1.54297 0.14885,0.0684 0.29909,0.13493 0.44531,0.20899 0.7642,0.16829 1.52669,0.33955 2.29297,0.49804 l 0.006,-0.0312 c 0.002,-0.0105 0.008,0.0335 -0.002,0.0312 -10e-4,-2.6e-4 -0.003,2.6e-4 -0.004,0 -0.0643,0.35056 -0.12228,0.70251 -0.18164,1.05469 0.33861,-0.5119 0.5698,-1.18483 1.11133,-1.38867 0.0271,-0.0457 0.0609,-0.0865 0.11328,-0.11719 3.43113,-2.0069 3.21153,-0.42458 3.82422,1.68359 0.048,0.10307 0.087,0.21785 0.12109,0.33985 1.71643,-0.8495 2.17866,-0.9047 2.44727,-0.39453 0.32036,-0.23556 0.69508,-0.61251 1.07812,-0.50782 0.79259,0.21663 1.36848,0.91037 2.05274,1.36524 0.01,0.0644 0.0182,0.12889 0.0273,0.19336 0.37007,-0.80436 0.9419,-1.90526 1.67774,-1.97852 0.0964,-0.01 0.19292,-0.009 0.28906,-0.002 0.67297,0.0476 1.33127,0.4705 1.85742,0.89844 0.27748,0.22568 0.18217,0.69202 0.24023,1.04492 0.001,0.009 0.002,0.026 0.004,0.0371 0.0488,0.14077 0.0874,0.28596 0.11524,0.43164 0.0236,0.12324 0.0368,0.24672 0.0488,0.37109 0.36202,0.0482 0.7285,0.15883 1.09571,0.27539 0.0346,0.007 0.0564,0.0119 0.0918,0.0195 0.0162,0.003 0.023,0.0123 0.0332,0.0195 0.33204,0.10533 0.66408,0.20621 0.99218,0.25976 -0.021,0.75333 -0.0354,1.50798 0.0254,2.25977 0.008,0.20317 0.006,0.40658 0.004,0.60937 0.24431,0.003 0.49088,0.0206 0.73828,0.041 0.0373,-0.0749 0.0917,-0.13152 0.17774,-0.14844 0.0207,-0.004 0.0417,-0.004 0.0625,-0.008 2e-4,-0.003 -2.1e-4,-0.007 0,-0.01 0.006,0.002 0.0131,0.004 0.0195,0.006 1.03845,-0.17741 2.11119,0.13441 3.16601,0.19336 -0.0281,0.44537 -0.0463,0.89217 -0.0605,1.33789 0.36129,-1.20235 0.58644,-2.36302 2.58007,-2.24805 1.44127,0.0831 1.17076,1.83327 1.28125,2.64649 0.0283,0.20798 0.0805,0.41119 0.13086,0.61523 0.095,0.008 0.17303,0.013 0.27539,0.0215 1.22776,-0.36789 2.33504,0.33664 3.01563,1.32812 0.10714,0.5743 -0.34481,-1.77607 0.58984,0.88086 0.45753,1.30062 -0.68852,2.96378 -0.9375,4.17969 -0.53384,1.3731 -0.77057,2.73124 -2.6582,3.02734 -0.0612,0.16885 -0.12759,0.33513 -0.21094,0.49414 -0.214,0.40832 -0.54925,0.73937 -0.82422,1.10938 -0.81756,-0.0418 -1.71594,0.23105 -2.45312,-0.125 -0.29536,-0.14266 -0.42554,-0.45017 -0.47266,-0.78906 -0.20356,0.53447 -0.4762,0.66119 -1.23047,0.38281 -1e-5,0.0255 -0.001,0.0373 0.004,0.0898 0.0885,0.98827 -0.46529,1.86485 -1.01172,2.62891 -0.92281,-0.51495 -1.99803,-0.82274 -2.76953,-1.54492 -0.0441,-0.0413 -0.0721,-0.0907 -0.0937,-0.14258 -0.0882,-0.0734 -0.15321,-0.16318 -0.20117,-0.26563 0.0619,0.26338 0.10602,0.51565 -0.0957,0.60547 -0.01,0.004 -0.0179,0.007 -0.0273,0.0117 0.0639,0.5049 0.0318,0.66525 -0.94336,0.39258 -1.227,0.46935 -1.81922,0.48801 -2.08789,0.17773 -0.30935,0.037 -0.62737,0.0445 -0.94336,0.0586 -0.0134,0.18317 -0.0562,0.39227 -0.1582,0.9414 -0.044,0.23692 -0.11502,0.46761 -0.16602,0.70313 -0.0663,0.30634 -0.0839,0.54897 -0.10742,0.54297 -0.7909,-0.18968 -1.56557,-0.43926 -2.3418,-0.6836 -0.0732,0.37983 -0.41453,0.45171 -1.4746,-0.25781 -1.37325,0.67482 -1.79299,-0.0983 -1.79493,-1.125 -0.16131,0.0239 -0.31653,0.0608 -0.47461,0.0918 -0.0203,0.9845 -0.17957,1.34378 -2.77343,0.0176 -0.13886,-5.1e-4 -0.27824,-3.9e-4 -0.41602,0 -0.0754,2.2e-4 -0.0304,-0.11985 -0.01,-0.21485 -0.24872,-0.1355 -0.13556,-0.46197 -0.004,-0.79492 -0.004,-0.12768 -0.006,-0.25514 -0.01,-0.38281 -0.0399,-0.0281 -0.0814,-0.0597 -0.11914,-0.0801 -0.13833,-0.0748 -0.34794,-0.20465 -0.5664,-0.33984 -0.10829,0.10874 -0.21846,0.21573 -0.32227,0.32812 -1.5723,-0.40735 -2.01926,-0.37432 -2.10547,-0.47656 -0.65945,-0.23971 -1.32105,-0.54975 -1.90234,-0.95703 -0.087,0.33709 -0.16851,0.67472 -0.24805,1.01367 -0.005,0.0746 -0.006,0.15006 -0.0117,0.22461 -0.0236,0.28951 0.16109,0.79243 -0.12109,0.86133 -1.04561,0.25538 -2.15423,-0.03 -3.23047,-0.0449 0.0217,-0.53184 0.0948,-1.05516 0.19531,-1.57617 0.019,-0.48457 0.025,-0.96958 0.0234,-1.45508 -0.0596,-0.0179 -0.11599,-0.0357 -0.17383,-0.0527 -0.24079,0.46721 -0.63103,0.71125 -1.34961,0.33203 -0.0738,0.0309 -0.14932,0.0581 -0.22265,0.0898 0.0447,0.30154 0.0543,0.57812 -0.17774,0.69531 -0.0426,0.0215 -0.0775,0.0361 -0.11914,0.0566 -4.8e-4,0.002 -9.5e-4,0.004 -0.002,0.006 -0.002,0.008 -0.0172,0.01 -0.0293,0.008 -0.92727,0.45485 -1.61472,0.67414 -2.10156,0.70898 -1.20594,0.52028 -1.97071,0.1208 -2.63867,-1.25195 -0.11098,-0.34878 -0.21335,-0.48199 -0.25196,-0.58008 -0.93698,-0.18722 -1.05398,-0.79951 -1.15429,-1.59179 -0.7438,-0.18256 -1.48237,-0.38213 -2.18555,-0.70118 -0.26766,-0.0465 -0.5376,-0.0901 -0.80469,-0.13671 -1.66631,-0.37648 -4.28872,-0.51532 -3.11328,-3.01172 -0.91267,0.0422 -1.95609,0.013 -2.7168,-0.0254 -0.51176,-0.54306 -1.06382,-1.05202 -1.5371,-1.62891 v -0.002 l -0.002,-0.002 c -0.0164,-0.0201 -0.0271,-0.0429 -0.0371,-0.0664 -0.48112,0.0653 -0.97601,0.007 -1.47265,-0.0684 -0.0145,0.0362 -0.0257,0.0734 -0.041,0.10937 -0.19415,0.48635 -0.38635,0.97324 -0.58203,1.45899 -0.11758,0.2919 -0.0445,0.83934 -0.35742,0.87304 -0.0422,0.005 -0.0682,0.005 -0.10938,0.01 -0.1371,0.22219 -0.36168,0.26877 -0.79101,0.0723 -2.82943,0.23274 -2.37891,-0.28503 -2.02149,-1.99024 0.0325,-0.31857 0.0483,-0.64066 0.0977,-0.95703 0.0679,-0.43299 0.16511,-0.85889 0.27344,-1.2832 -2.94268,-0.42572 -2.35405,0.26859 -2.58008,-1.56836 -4.2e-4,-0.0408 5e-4,-0.0494 0,-0.0859 -0.27902,-0.0171 -0.46413,-0.0891 -0.58399,-0.22461 -0.0605,0.12732 -0.11928,0.25555 -0.17968,0.38281 -0.24738,0.35538 -0.30928,1.05741 -0.74219,1.06641 -3.16791,0.0681 -2.9012,-0.2729 -2.9043,-1.72266 -10e-4,-0.6267 -0.005,-0.73179 -0.0117,-1.375 -9.6e-4,-0.0788 7.4e-4,-0.15761 0,-0.23632 -0.91505,-0.0136 -1.82647,-0.38993 -2.66601,-0.76368 -0.0508,-0.0226 -0.0595,-0.30998 -0.0586,-0.60547 -0.0987,-0.0482 -0.19656,-0.0993 -0.29101,-0.15625 -0.26697,-0.16084 -0.0821,-0.62547 -0.0352,-0.93359 0.0469,-0.30806 0.11037,-0.61371 0.17774,-0.91797 -0.19933,0.267 -0.40669,0.52709 -0.68946,0.47071 -2.76463,-0.55139 -2.56213,-1.33684 -2.07031,-2.95899 0.0388,-0.1 0.0791,-0.19927 0.11914,-0.29883 -0.0633,0.0384 -0.12879,0.0739 -0.1914,0.11328 -0.55515,-0.40389 -1.20356,-0.70549 -1.66602,-1.21289 -0.10114,-0.11096 -0.15848,-1.29243 -0.084,-1.52929 0.0206,-0.0656 0.17175,0.0946 0.26757,0.20898 -0.17897,-0.38925 -0.4196,-0.75557 -0.52734,-1.16992 -0.0256,-0.0986 -0.0251,-0.24987 -0.01,-0.42188 -0.3236,0.0208 -0.64379,0.009 -0.94921,-0.082 -2.0736,-0.61896 -1.07178,-1.06921 -0.64454,-1.26953 0.23797,-0.12463 0.0886,-0.0603 -0.17187,-0.42187 -0.35614,0.33186 -0.74313,0.60655 -1.17383,0.75195 -1.06798,0.36053 -1.83808,-0.10104 -2.50195,-0.93164 -0.21122,-0.26427 -0.21834,-0.63899 -0.32813,-0.95899 -0.0585,-0.79342 -0.10487,-1.57368 -0.0254,-2.36914 0.13527,-1.35311 0.11027,-0.73123 0.24805,-1.43945 -1.10612,-0.57484 -0.72087,-2.21915 -0.34961,-3.04687 -0.002,-0.0264 -0.002,-0.0519 -0.004,-0.0781 -0.17107,-0.18917 -0.3412,-0.37761 -0.36328,-0.61914 -0.009,-0.10131 0.17982,0.004 0.33789,0.0996 -0.001,-0.0272 -0.003,-0.0548 -0.004,-0.082 -0.19177,-0.13543 -0.42295,-0.22731 -0.6211,-0.35547 -0.10313,-0.16505 -0.22741,-0.31921 -0.30859,-0.49609 -0.69694,-1.51848 -0.0721,-3.60401 0.52148,-5.03321 0.0109,-0.009 0.0186,-0.0187 0.0293,-0.0273 -10e-4,-0.0457 -0.008,-0.0857 -0.008,-0.13281 v -2.08008 c 0,-0.57547 -0.17125,-2.38882 0.48828,-2.8711 0.71872,-0.52557 1.31929,-0.77387 1.89453,-0.78125 z M 377.87742,501.91 c 0.0107,-0.005 0.0206,-0.008 0.0312,-0.0137 0.0242,-0.0822 0.0926,-0.20792 0.0586,-0.26367 -0.0489,0.1102 -0.0881,0.20746 -0.10547,0.26953 -0.002,0.006 0.007,0.007 0.0156,0.008 z m -16.6543,-31.25977 c -0.43044,-0.2095 -0.86537,-0.39067 -1.32421,-0.45703 -0.21386,0.25447 -0.3702,0.58996 -0.58594,0.8418 0.35317,0.20099 0.70542,0.40252 1.05859,0.60352 0.24035,-0.25092 0.53197,-0.59459 0.85156,-0.98829 z m -3.70898,1.25977 c 0.003,-0.27096 0.003,-0.54154 0.006,-0.8125 -0.2651,0.0314 -0.56723,0.11733 -0.77148,0.23047 0.0126,0.0715 0.0228,0.14233 0.0254,0.21484 0.005,0.13287 -0.002,0.24246 -0.008,0.35157 0.12305,0.10959 0.26396,0.19865 0.41602,0.27539 0.11657,-0.0822 0.22803,-0.16799 0.33203,-0.25977 z m -6.08398,-3.82031 c -0.004,0.003 -0.009,0.005 -0.0137,0.008 -0.0426,0.0421 -0.0849,0.085 -0.1289,0.125 0.0362,-0.0161 0.0717,-0.0335 0.11328,-0.0547 0.009,-0.0262 0.0201,-0.0519 0.0293,-0.0781 z m 7.60742,3.45703 c -0.0845,-0.0261 -0.26322,0.67169 -0.0332,0.88476 0.0118,-0.0768 0.0258,-0.15332 0.0352,-0.23046 0.0569,-0.46627 0.0381,-0.64196 -0.002,-0.6543 z m -19.95899,3.11914 c -0.0209,0.007 -0.0416,0.0166 -0.0625,0.0234 0.002,0.0215 0.002,0.043 0.004,0.0644 0.0255,-0.0306 0.0409,-0.0591 0.0586,-0.0879 z m 30.61328,5.3125 c -0.0389,-0.003 -0.0644,-0.003 -0.0391,0.002 0.0559,0.0101 0.11196,0.0177 0.16797,0.0273 -0.005,-0.003 -0.0113,-0.008 -0.0156,-0.01 -0.0235,-0.0104 -0.0744,-0.0165 -0.11329,-0.0195 z m 16.79102,4.28711 c 0.0346,0.13291 -0.0431,0.3227 0.0293,0.42383 0.0187,-0.0415 0.0244,-0.0547 0.0469,-0.10547 -0.0373,0.0416 -0.10382,-0.42457 -0.0762,-0.31836 z m 11.14063,1.86523 c 0.004,0.0545 0.0124,0.1072 0.0273,0.15821 -1.8e-4,-0.0344 -0.0132,-0.0949 -0.0234,-0.15039 -0.002,-0.002 -0.002,-0.005 -0.004,-0.008 z m -1.91016,0.14258 c -0.006,0.002 -0.0142,0.0165 -0.0234,0.0449 -0.034,0.10446 -0.0595,0.21116 -0.084,0.31836 0.12031,-0.15447 0.13548,-0.37324 0.10742,-0.36328 z m 17.36133,13.25 c -0.0118,0.0559 -0.0338,0.12731 -0.0156,0.16797 0.0126,0.0282 0.0981,-0.0167 0.082,-0.043 -0.024,-0.0391 -0.0439,-0.0838 -0.0664,-0.125 z m -28.08985,2.03516 c -0.002,0.006 -0.002,0.0198 -0.004,0.0254 0.003,0.0188 0.0106,0.0757 0.01,0.0566 -0.002,-0.0414 -0.004,-0.0442 -0.006,-0.082 z m 21.21875,0.84765 c -6e-4,0.003 -9e-4,0.006 -0.002,0.01 0.003,-0.004 0.003,-0.005 0.006,-0.008 -10e-4,-5.3e-4 -0.003,-9.2e-4 -0.004,-0.002 z m -11.61914,3.36133 c -0.0369,-0.002 -0.0304,0.14372 -0.0234,0.10742 0.007,-0.0364 0.0161,-0.0713 0.0234,-0.10742 z" />
    </clipPath>
    <linearGradient
       inkscape:collect="always"
       xlink:href="#linearGradient1494"
       id="linearGradient1937"
       gradientUnits="userSpaceOnUse"
       x1="290.2739"
       y1="462.655"
       x2="546.27393"
       y2="462.655" />
  </defs>
  <g
     inkscape:label="Layer 1"
     inkscape:groupmode="layer"
     id="layer1"
     transform="translate(-2.1486177,-8.5331878)">
    <text
       xml:space="preserve"
       style="font-style:normal;font-weight:normal;font-size:11.3424px;line-height:1.25;font-family:sans-serif;fill:#000000;fill-opacity:1;stroke:none;stroke-width:0.284;stroke-dasharray:none"
       x="10.494814"
       y="31.392262"
       id="text339"><tspan
         sodipodi:role="line"
         id="tspan337"
         style="font-style:normal;font-variant:normal;font-weight:normal;font-stretch:normal;font-size:11.3424px;font-family:sans-serif;-inkscape-font-specification:'sans-serif, @wght=700';font-variant-ligatures:normal;font-variant-caps:normal;font-variant-numeric:normal;font-variant-east-asian:normal;font-variation-settings:'wght' 700;fill:#000000;stroke-width:0.284;stroke-dasharray:none"
         x="10.494814"
         y="31.392262"> Job   Seeker</tspan></text>
    <g
       id="layer1-5"
       transform="matrix(0.18450501,0,0,0.18450501,-51.408373,-53.211818)"
       clip-path="url(#clipPath535)"
       style="fill:url(#linearGradient1496);fill-opacity:1">
      <path
         id="path3058-6"
         style="color:#000000;text-indent:0;text-transform:none;fill:url(#linearGradient1937);fill-opacity:1"
         d="m 393.36,334.66 c -26.422,0 -52.849,10.027 -72.935,30.113 -40.172,40.171 -40.218,105.74 -0.046,145.91 35.217,35.216 89.911,39.558 129.94,13.03 l 60.918,60.916 c 8.0386,8.0384 20.97,8.0384 29.008,0 8.0387,-8.0384 8.0387,-20.969 0,-29.008 L 479.373,494.705 C 505.87,454.682 501.5,399.973 466.296,364.765 446.21,344.68 419.782,334.652 393.361,334.652 Z m -0.046,27.166 c 19.371,0.009 38.738,7.4275 53.596,22.285 29.716,29.715 29.762,77.521 0.046,107.24 -29.716,29.715 -77.523,29.715 -107.24,0 -29.716,-29.715 -29.716,-77.52 0,-107.24 14.858,-14.858 34.225,-22.295 53.596,-22.285 z m -54.656,99.224 a 2.9472,2.9471 0 0 0 -2.5325,4.236 c 10.265,21.49 32.226,36.328 57.602,36.328 5.5064,0 10.842,-0.71645 15.932,-2.0259 a 2.9472,2.9471 0 0 0 -0.0921,-5.7094 c -25.496,-5.6948 -48.907,-16.882 -68.975,-32.231 a 2.9472,2.9471 0 0 0 -1.9339,-0.59857 z" />
    </g>
  </g>
</svg>
